<svg width="134" height="61" viewBox="0 0 134 61" fill="none" xmlns="http://www.w3.org/2000/svg">
<path d="M25.0646 0.410476C30.3157 0.410476 34.8743 1.27604 38.7405 3.00717C42.6644 4.7383 45.665 7.21958 47.7424 10.451C49.8197 13.6825 50.8584 17.5198 50.8584 21.963C50.8584 26.3486 49.8197 30.1859 47.7424 33.475C45.665 36.7065 42.6644 39.1878 38.7405 40.9189C34.8743 42.65 30.3157 43.5156 25.0646 43.5156H11.3886V61H0.136307V0.410476H25.0646ZM24.5452 33.9944C29.4501 33.9944 33.172 32.9557 35.711 30.8784C38.25 28.801 39.5195 25.8292 39.5195 21.963C39.5195 18.0968 38.25 15.1251 35.711 13.0477C33.172 10.9704 29.4501 9.93169 24.5452 9.93169H11.3886V33.9944H24.5452ZM62.0952 0.410476H73.3475V61H62.0952V0.410476ZM102.027 9.93169H81.9457V0.410476H133.36V9.93169H113.279V61H102.027V9.93169Z" fill="#383838"/>
</svg>
