<svg width="641" height="172" viewBox="0 0 641 172" fill="none" xmlns="http://www.w3.org/2000/svg">
<path d="M342.531 127L327.124 105.621C325.104 106.024 322.738 106.226 320.026 106.226H301.243V127H299.512V66.4105H320.026C327.47 66.4105 333.298 68.1705 337.51 71.6904C341.723 75.1527 343.829 80.0287 343.829 86.3185C343.829 91.1656 342.531 95.2338 339.934 98.5229C337.337 101.754 333.673 103.976 328.941 105.188L344.694 127H342.531ZM320.199 104.582C327.239 104.582 332.634 102.995 336.385 99.8213C340.194 96.6475 342.098 92.1466 342.098 86.3185C342.098 80.4903 340.194 75.9894 336.385 72.8157C332.634 69.6419 327.239 68.055 320.199 68.055H301.243V104.582H320.199ZM396.093 104.582H356.277C356.277 108.621 357.172 112.257 358.961 115.488C360.75 118.662 363.202 121.143 366.318 122.932C369.492 124.721 373.041 125.615 376.964 125.615C380.023 125.615 382.879 125.038 385.534 123.884C388.246 122.672 390.467 120.941 392.198 118.691L393.41 119.902C391.448 122.268 389.025 124.086 386.139 125.355C383.254 126.625 380.196 127.26 376.964 127.26C372.694 127.26 368.857 126.308 365.452 124.403C362.106 122.441 359.451 119.729 357.489 116.267C355.585 112.805 354.633 108.91 354.633 104.582C354.633 100.254 355.527 96.3879 357.316 92.9833C359.105 89.5211 361.557 86.8378 364.673 84.9336C367.847 82.9716 371.396 81.9906 375.32 81.9906C379.186 81.9906 382.706 82.9428 385.88 84.847C389.054 86.7512 391.535 89.3768 393.324 92.7236C395.17 96.0705 396.093 99.879 396.093 104.149V104.582ZM375.32 83.6352C371.858 83.6352 368.713 84.4719 365.885 86.1453C363.058 87.8188 360.778 90.1269 359.047 93.0699C357.374 96.0128 356.451 99.3019 356.277 102.937H394.449C394.276 99.3019 393.324 96.0128 391.593 93.0699C389.861 90.1269 387.582 87.8188 384.755 86.1453C381.927 84.4719 378.782 83.6352 375.32 83.6352ZM448.885 82.2503V143.792H447.154V113.411C445.654 117.623 443.086 120.999 439.451 123.538C435.873 126.019 431.776 127.26 427.16 127.26C423.12 127.26 419.427 126.308 416.081 124.403C412.791 122.441 410.195 119.758 408.29 116.354C406.386 112.891 405.434 108.996 405.434 104.668C405.434 100.341 406.386 96.4456 408.29 92.9833C410.195 89.5211 412.791 86.8378 416.081 84.9336C419.427 82.9716 423.12 81.9906 427.16 81.9906C431.834 81.9906 435.96 83.2601 439.537 85.7991C443.115 88.2804 445.654 91.6561 447.154 95.9262V82.2503H448.885ZM427.16 125.615C430.911 125.615 434.315 124.75 437.373 123.018C440.432 121.23 442.827 118.748 444.558 115.575C446.289 112.343 447.154 108.708 447.154 104.668C447.154 100.629 446.289 97.0226 444.558 93.8489C442.827 90.6174 440.432 88.1073 437.373 86.3185C434.315 84.5296 430.911 83.6352 427.16 83.6352C423.409 83.6352 420.004 84.5296 416.946 86.3185C413.888 88.1073 411.493 90.6174 409.762 93.8489C408.031 97.0226 407.165 100.629 407.165 104.668C407.165 108.708 408.031 112.343 409.762 115.575C411.493 118.748 413.888 121.23 416.946 123.018C420.004 124.75 423.409 125.615 427.16 125.615ZM506.35 82.2503V127H504.619V115.142C503.292 118.95 501.07 121.922 497.954 124.057C494.838 126.192 491.059 127.26 486.615 127.26C480.845 127.26 476.344 125.673 473.112 122.499C469.881 119.268 468.265 114.651 468.265 108.65V82.2503H469.996V108.65C469.996 114.132 471.439 118.344 474.324 121.287C477.209 124.172 481.278 125.615 486.529 125.615C492.126 125.615 496.54 123.884 499.772 120.422C503.003 116.902 504.619 112.285 504.619 106.573V82.2503H506.35ZM562.444 104.582H522.628C522.628 108.621 523.523 112.257 525.311 115.488C527.1 118.662 529.553 121.143 532.669 122.932C535.842 124.721 539.391 125.615 543.315 125.615C546.373 125.615 549.23 125.038 551.884 123.884C554.596 122.672 556.818 120.941 558.549 118.691L559.761 119.902C557.799 122.268 555.375 124.086 552.49 125.355C549.605 126.625 546.547 127.26 543.315 127.26C539.045 127.26 535.208 126.308 531.803 124.403C528.456 122.441 525.802 119.729 523.84 116.267C521.936 112.805 520.984 108.91 520.984 104.582C520.984 100.254 521.878 96.3879 523.667 92.9833C525.456 89.5211 527.908 86.8378 531.024 84.9336C534.198 82.9716 537.747 81.9906 541.671 81.9906C545.537 81.9906 549.057 82.9428 552.23 84.847C555.404 86.7512 557.886 89.3768 559.674 92.7236C561.521 96.0705 562.444 99.879 562.444 104.149V104.582ZM541.671 83.6352C538.208 83.6352 535.063 84.4719 532.236 86.1453C529.408 87.8188 527.129 90.1269 525.398 93.0699C523.725 96.0128 522.801 99.3019 522.628 102.937H560.8C560.626 99.3019 559.674 96.0128 557.943 93.0699C556.212 90.1269 553.933 87.8188 551.105 86.1453C548.278 84.4719 545.133 83.6352 541.671 83.6352ZM587.365 127.26C583.787 127.26 580.412 126.683 577.238 125.529C574.064 124.374 571.612 122.903 569.881 121.114L570.919 119.729C572.65 121.403 574.959 122.816 577.844 123.971C580.787 125.067 583.96 125.615 587.365 125.615C592.443 125.615 596.194 124.75 598.617 123.018C601.041 121.23 602.253 118.777 602.253 115.661C602.253 113.411 601.589 111.651 600.262 110.381C598.992 109.054 597.406 108.102 595.501 107.525C593.655 106.89 591.087 106.255 587.798 105.621C584.278 104.986 581.421 104.322 579.229 103.63C577.094 102.88 575.276 101.726 573.776 100.167C572.333 98.5518 571.612 96.3302 571.612 93.5026C571.612 90.2712 572.939 87.5591 575.593 85.3663C578.305 83.1159 582.258 81.9906 587.452 81.9906C590.221 81.9906 592.962 82.4234 595.674 83.289C598.386 84.0968 600.579 85.1932 602.253 86.5781L601.214 87.963C599.483 86.5781 597.406 85.5106 594.982 84.7604C592.558 84.0103 590.048 83.6352 587.452 83.6352C582.777 83.6352 579.258 84.5585 576.892 86.405C574.583 88.1939 573.429 90.5597 573.429 93.5026C573.429 95.8685 574.093 97.7439 575.42 99.1288C576.747 100.456 578.392 101.437 580.354 102.072C582.316 102.706 584.913 103.312 588.144 103.889C591.664 104.582 594.463 105.274 596.54 105.967C598.617 106.659 600.377 107.784 601.82 109.342C603.262 110.843 603.984 112.949 603.984 115.661C603.984 119.181 602.57 122.009 599.743 124.144C596.915 126.221 592.789 127.26 587.365 127.26ZM637.385 124.057C636.404 125.096 635.106 125.904 633.49 126.481C631.932 127 630.316 127.26 628.643 127.26C625.181 127.26 622.497 126.279 620.593 124.317C618.747 122.297 617.823 119.614 617.823 116.267V83.8949H609.168V82.2503H617.823V72.4694H619.555V82.2503H634.702V83.8949H619.555V115.834C619.555 119.008 620.334 121.432 621.892 123.105C623.45 124.778 625.729 125.615 628.729 125.615C631.73 125.615 634.211 124.692 636.173 122.845L637.385 124.057Z" fill="#383838"/>
<path d="M180.065 66.4105C185.316 66.4105 189.874 67.276 193.74 69.0072C197.664 70.7383 200.665 73.2196 202.742 76.451C204.82 79.6825 205.858 83.5198 205.858 87.963C205.858 92.3486 204.82 96.1859 202.742 99.475C200.665 102.706 197.664 105.188 193.74 106.919C189.874 108.65 185.316 109.516 180.065 109.516H166.389V127H155.136V66.4105H180.065ZM179.545 99.9944C184.45 99.9944 188.172 98.9557 190.711 96.8784C193.25 94.801 194.519 91.8292 194.519 87.963C194.519 84.0968 193.25 81.1251 190.711 79.0477C188.172 76.9704 184.45 75.9317 179.545 75.9317H166.389V99.9944H179.545ZM217.095 66.4105H228.348V127H217.095V66.4105ZM257.027 75.9317H236.946V66.4105H288.36V75.9317H268.279V127H257.027V75.9317Z" fill="#383838"/>
<path d="M107.408 145.776C107.408 145.776 120.368 130.122 112.732 101.514C108.961 87.3892 94.1358 60.0671 94.1358 60.0671C103.483 54.5656 116.741 51.4531 123.045 52C123.045 52 140.761 74.0803 135.594 102.85C130.427 131.62 107.408 145.776 107.408 145.776Z" fill="#888888"/>
<path d="M135.047 105.5C135.047 105.5 125.957 85.435 118.045 81.5C118.045 81.5 123.129 74.3368 123.775 67.9663C124.42 61.5958 124.546 56 123.046 52C123.046 52 130.545 61 134.545 76.5C138.545 92 135.047 105.5 135.047 105.5Z" fill="#606060"/>
<path d="M21.3785 88.0299C21.3785 88.0299 28.4547 107.081 57.0484 114.772C71.1657 118.569 102.24 119.391 102.24 119.391C102.331 130.236 98.3973 143.274 94.7719 148.46C94.7719 148.46 66.792 152.762 44.4597 133.903C22.1273 115.043 21.3785 88.0299 21.3785 88.0299Z" fill="#0070ED"/>
<g style="mix-blend-mode:color-burn">
<path d="M42.4388 132.104C42.4388 132.104 64.3604 134.264 71.7242 129.38C71.7242 129.38 75.3856 137.365 80.5799 141.109C85.7741 144.853 90.5574 147.76 94.7715 148.461C94.7715 148.461 83.2275 150.456 67.8042 146.17C52.3809 141.883 42.4388 132.104 42.4388 132.104Z" fill="#888888"/>
</g>
<path d="M112.907 44.2307C112.907 44.2307 92.8701 40.8332 71.9132 61.7507C61.5662 72.0782 45.3173 98.5786 45.3173 98.5786C35.8793 93.2343 26.5546 83.3086 23.8765 77.5761C23.8765 77.5761 34.1407 51.1938 61.6397 41.2831C89.1386 31.3725 112.907 44.2307 112.907 44.2307Z" fill="#94DCAA"/>
<path d="M107.41 146.076C107.41 146.076 120.371 130.422 112.735 101.814C108.964 87.6898 94.1387 60.3676 94.1387 60.3676C103.486 54.8662 116.744 51.7536 123.048 52.3005C123.048 52.3005 140.763 74.3808 135.597 103.151C130.43 131.921 107.41 146.076 107.41 146.076Z" fill="#888888"/>
<path d="M21.5072 88.6485C21.5072 88.6485 28.5834 107.7 57.177 115.39C71.2943 119.187 102.369 120.009 102.369 120.009C102.46 130.855 98.526 143.893 94.9006 149.079C94.9006 149.079 66.9207 153.381 44.5883 134.521C22.256 115.662 21.5072 88.6485 21.5072 88.6485Z" fill="#0070ED"/>
</svg>
