<svg width="339" height="78" viewBox="0 0 339 78" fill="none" xmlns="http://www.w3.org/2000/svg">
<path d="M43.5306 61L28.1235 39.6206C26.1039 40.0245 23.738 40.2264 21.0259 40.2264H2.24314V61H0.512009V0.410476H21.0259C28.4697 0.410476 34.2979 2.17046 38.5103 5.69042C42.7227 9.15268 44.8289 14.0287 44.8289 20.3185C44.8289 25.1656 43.5306 29.2338 40.9339 32.5229C38.3372 35.7544 34.673 37.976 29.9412 39.1878L45.6945 61H43.5306ZM21.199 38.5819C28.2389 38.5819 33.6343 36.995 37.3851 33.8213C41.1935 30.6475 43.0978 26.1466 43.0978 20.3185C43.0978 14.4903 41.1935 9.98939 37.3851 6.81565C33.6343 3.64192 28.2389 2.05505 21.199 2.05505H2.24314V38.5819H21.199ZM97.0935 38.5819H57.2775C57.2775 42.6212 58.1719 46.2565 59.9607 49.488C61.7496 52.6617 64.202 55.143 67.318 56.9318C70.4918 58.7207 74.0406 59.6151 77.9645 59.6151C81.0228 59.6151 83.8792 59.0381 86.5336 57.884C89.2457 56.6722 91.4673 54.941 93.1984 52.6906L94.4102 53.9024C92.4483 56.2682 90.0247 58.0859 87.1395 59.3554C84.2543 60.6249 81.1959 61.2597 77.9645 61.2597C73.6944 61.2597 69.857 60.3075 66.4525 58.4033C63.1056 56.4414 60.4512 53.7293 58.4893 50.267C56.585 46.8047 55.6329 42.9097 55.6329 38.5819C55.6329 34.2541 56.5273 30.3879 58.3162 26.9833C60.105 23.5211 62.5574 20.8378 65.6735 18.9336C68.8472 16.9716 72.396 15.9906 76.3199 15.9906C80.1861 15.9906 83.7061 16.9428 86.8798 18.847C90.0535 20.7512 92.5348 23.3768 94.3237 26.7236C96.1702 30.0705 97.0935 33.879 97.0935 38.1491V38.5819ZM76.3199 17.6352C72.8577 17.6352 69.7128 18.4719 66.8853 20.1453C64.0577 21.8188 61.7784 24.1269 60.0473 27.0699C58.3739 30.0128 57.4506 33.3019 57.2775 36.9373H95.4489C95.2758 33.3019 94.3237 30.0128 92.5925 27.0699C90.8614 24.1269 88.5821 21.8188 85.7546 20.1453C82.9271 18.4719 79.7822 17.6352 76.3199 17.6352ZM149.885 16.2503V77.792H148.154V47.4106C146.654 51.623 144.086 54.9988 140.451 57.5377C136.873 60.019 132.776 61.2597 128.16 61.2597C124.12 61.2597 120.427 60.3075 117.081 58.4033C113.791 56.4414 111.195 53.7581 109.29 50.3536C107.386 46.8913 106.434 42.9963 106.434 38.6684C106.434 34.3406 107.386 30.4456 109.29 26.9833C111.195 23.5211 113.791 20.8378 117.081 18.9336C120.427 16.9716 124.12 15.9906 128.16 15.9906C132.834 15.9906 136.96 17.2601 140.537 19.7991C144.115 22.2804 146.654 25.6561 148.154 29.9262V16.2503H149.885ZM128.16 59.6151C131.911 59.6151 135.315 58.7495 138.373 57.0184C141.432 55.2296 143.827 52.7483 145.558 49.5745C147.289 46.3431 148.154 42.7077 148.154 38.6684C148.154 34.6291 147.289 31.0226 145.558 27.8489C143.827 24.6174 141.432 22.1073 138.373 20.3185C135.315 18.5296 131.911 17.6352 128.16 17.6352C124.409 17.6352 121.004 18.5296 117.946 20.3185C114.888 22.1073 112.493 24.6174 110.762 27.8489C109.031 31.0226 108.165 34.6291 108.165 38.6684C108.165 42.7077 109.031 46.3431 110.762 49.5745C112.493 52.7483 114.888 55.2296 117.946 57.0184C121.004 58.7495 124.409 59.6151 128.16 59.6151ZM207.35 16.2503V61H205.619V49.1418C204.292 52.9502 202.07 55.922 198.954 58.0571C195.838 60.1921 192.059 61.2597 187.615 61.2597C181.845 61.2597 177.344 59.6728 174.112 56.4991C170.881 53.2676 169.265 48.6513 169.265 42.65V16.2503H170.996V42.65C170.996 48.1319 172.439 52.3444 175.324 55.2873C178.209 58.1725 182.278 59.6151 187.529 59.6151C193.126 59.6151 197.54 57.884 200.772 54.4217C204.003 50.9017 205.619 46.2854 205.619 40.5727V16.2503H207.35ZM263.444 38.5819H223.628C223.628 42.6212 224.523 46.2565 226.311 49.488C228.1 52.6617 230.553 55.143 233.669 56.9318C236.842 58.7207 240.391 59.6151 244.315 59.6151C247.373 59.6151 250.23 59.0381 252.884 57.884C255.596 56.6722 257.818 54.941 259.549 52.6906L260.761 53.9024C258.799 56.2682 256.375 58.0859 253.49 59.3554C250.605 60.6249 247.547 61.2597 244.315 61.2597C240.045 61.2597 236.208 60.3075 232.803 58.4033C229.456 56.4414 226.802 53.7293 224.84 50.267C222.936 46.8047 221.984 42.9097 221.984 38.5819C221.984 34.2541 222.878 30.3879 224.667 26.9833C226.456 23.5211 228.908 20.8378 232.024 18.9336C235.198 16.9716 238.747 15.9906 242.671 15.9906C246.537 15.9906 250.057 16.9428 253.23 18.847C256.404 20.7512 258.886 23.3768 260.674 26.7236C262.521 30.0705 263.444 33.879 263.444 38.1491V38.5819ZM242.671 17.6352C239.208 17.6352 236.063 18.4719 233.236 20.1453C230.408 21.8188 228.129 24.1269 226.398 27.0699C224.725 30.0128 223.801 33.3019 223.628 36.9373H261.8C261.626 33.3019 260.674 30.0128 258.943 27.0699C257.212 24.1269 254.933 21.8188 252.105 20.1453C249.278 18.4719 246.133 17.6352 242.671 17.6352ZM288.365 61.2597C284.787 61.2597 281.412 60.6826 278.238 59.5285C275.064 58.3745 272.612 56.903 270.881 55.1142L271.919 53.7293C273.65 55.4027 275.959 56.8164 278.844 57.9705C281.787 59.0669 284.96 59.6151 288.365 59.6151C293.443 59.6151 297.194 58.7495 299.617 57.0184C302.041 55.2296 303.253 52.7771 303.253 49.6611C303.253 47.4106 302.589 45.6507 301.262 44.3812C299.992 43.054 298.406 42.1018 296.501 41.5248C294.655 40.89 292.087 40.2553 288.798 39.6206C285.278 38.9858 282.421 38.3222 280.229 37.6298C278.094 36.8796 276.276 35.7255 274.776 34.1675C273.333 32.5518 272.612 30.3302 272.612 27.5026C272.612 24.2712 273.939 21.5591 276.593 19.3663C279.305 17.1159 283.258 15.9906 288.452 15.9906C291.221 15.9906 293.962 16.4234 296.674 17.289C299.386 18.0968 301.579 19.1932 303.253 20.5781L302.214 21.963C300.483 20.5781 298.406 19.5106 295.982 18.7604C293.558 18.0103 291.048 17.6352 288.452 17.6352C283.777 17.6352 280.258 18.5585 277.892 20.405C275.583 22.1939 274.429 24.5597 274.429 27.5026C274.429 29.8685 275.093 31.7439 276.42 33.1288C277.747 34.456 279.392 35.437 281.354 36.0717C283.316 36.7065 285.913 37.3124 289.144 37.8894C292.664 38.5819 295.463 39.2743 297.54 39.9668C299.617 40.6592 301.377 41.7845 302.82 43.3425C304.262 44.8428 304.984 46.949 304.984 49.6611C304.984 53.1811 303.57 56.0086 300.743 58.1436C297.915 60.221 293.789 61.2597 288.365 61.2597ZM338.385 58.0571C337.404 59.0958 336.106 59.9036 334.49 60.4807C332.932 61 331.316 61.2597 329.643 61.2597C326.181 61.2597 323.497 60.2787 321.593 58.3167C319.747 56.2971 318.823 53.6138 318.823 50.267V17.8949H310.168V16.2503H318.823V6.46943H320.555V16.2503H335.702V17.8949H320.555V49.8342C320.555 53.008 321.334 55.4315 322.892 57.105C324.45 58.7784 326.729 59.6151 329.729 59.6151C332.73 59.6151 335.211 58.6918 337.173 56.8453L338.385 58.0571Z" fill="#383838"/>
</svg>
